<?xml version="1.0" encoding="UTF-8"?>
<svg id="Capa_1" data-name="Capa 1" xmlns="http://www.w3.org/2000/svg" viewBox="0 0 2000 2000">
  <path d="m601.2,999.81c.52-220.92,179.26-400.1,401.88-398.51,219.32,1.57,397.38,179.91,395.62,402.13-1.74,219.17-180.11,397.24-402.51,395.25-218.5-1.96-394.57-179-394.99-398.88Zm398.91-368.6c-203.38.59-367.22,163.47-368.75,365.83-1.55,205.27,162.93,370.17,365.81,371.62,205.34,1.47,370.56-163.27,371.44-366.43.89-205.4-164.35-371.01-368.5-371.01Z" fill="#020200" stroke-width="0"/>
  <path d="m999.81,1243.49c-129.16,0-239.4-90.91-264.5-218.19-3.06-15.54-4.43-31.29-4.85-47.13-.08-3.1.57-4.38,4.06-4.26,8.49.28,17.01.36,25.49-.02,4.3-.2,4.89,1.54,4.92,5.19.26,31.55,6.73,61.89,20.12,90.4,35.91,76.45,95.51,123.55,178.91,136.86,76.22,12.17,143.54-9.82,199.36-63.36,46.46-44.57,70.22-99.78,71.75-164.3.09-3.65,1-4.9,4.8-4.76,8.15.3,16.34.33,24.49,0,4.12-.17,5.35.89,5.23,5.15-1.03,38.08-8.69,74.71-25.4,108.99-39.61,81.28-103.92,131.44-192.27,150.56-17.12,3.7-34.56,5.1-52.11,4.89Z" fill="#020200" stroke-width="0"/>
</svg>