<?xml version="1.0" encoding="UTF-8"?>
<svg id="Capa_2" data-name="Capa 2" xmlns="http://www.w3.org/2000/svg" viewBox="0 0 259.16 259.16">
  <g id="Capa_1-2" data-name="Capa 1">
    <path d="m215.52,92.65c-2.4-1.75-5.05-3.05-7.86-3.98-3.59-1.07-7.22-1.33-10.92-.99-1.05-11.99-7.72-23.05-19.1-27.82-6.75-2.83-13.83-3.07-21.03-3.07-7.86,0-15.71,0-23.57,0-15.85,0-31.72-.2-47.57-.06-1.76.02-4.22-.44-5.43,1.19-.84,1.13-.57,2.29.03,3.43,1.48,2.8,3.27,5.48,4.89,8.2,6.04,10.14,12.13,20.25,18.13,30.42h-20.64c-3.48,0-7-.13-10.47,0-3.69.14-3.29,3.05-2.88,5.93.78,5.45,1.55,10.89,2.32,16.34,1.69,11.89,3.39,23.77,5.07,35.66-7.5,4.68-15,9.36-22.5,14.05-3.97,2.48-7.94,4.96-11.91,7.44-1.77,1.11-3.55,2.22-5.32,3.32-1.52.95-3.89,1.91-5.07,3.29-1.25,1.46-.79,3.82,1.06,4.51,1.27.48,3.06.18,4.38.18h48.97c18.3,0,36.59,0,54.89.06,15.2.04,32.9,1.25,44.99-9.8,5.72-5.23,8.91-12.48,10.13-20.04.93-5.71.32-11.54,1.48-17.2,1.45-7.04,5.54-13.56,12.83-15.48,2.08-.55,4.26-.79,6.4-.7,2.4.11,4.41,1.05,6.7,1.47,3.02.56,3.67-2.95,4.1-5.15,2.31-11.62-2.52-24.2-12.1-31.19Zm-91.73,41.86c1.97-1.25,3.94-2.5,5.92-3.75,1.6-1.02,1.83-1.62,2.3-3.64.14-.62-.19-1.36-.86-1.51-1.19-.27-2.24-.72-3.35-.16-.9.46-1.75,1.11-2.6,1.65-3.68,2.33-7.37,4.67-11.05,7-9.16,5.8-18.32,11.6-27.48,17.41-1.68,1.06-3.35,2.12-5.03,3.19-2.34-16.37-4.6-32.76-7-49.12,11.34.02,23.21.31,34.13-.07,7.59-.26,15.22,0,22.82,0,2.15,0,5.96.7,6.62-2.14.86-3.72-3.52-3.39-5.78-3.39h-22.83c-7.47-12.54-14.93-25.08-22.42-37.6,12.63,0,25.26,0,37.89,0,12.82,0,25.79-.56,38.6.11,12.11.63,22.66,6.96,26.27,18.98.49,1.65.9,3.34,1.13,5.04.22,1.64-.25,3.84.34,5.38.55,1.44,1.93,1.8,3.32,1.68,3.04-.26,5.71-.7,8.78-.14,13.35,2.42,20.98,16.61,18.6,29.32-9.51-2.3-19.85.64-25.56,8.92-2.95,4.27-4.45,9.52-5,14.64-.59,5.48-.15,10.86-1.45,16.29-1.23,5.16-3.55,10.06-7.4,13.79-3.95,3.83-9.09,6.06-14.38,7.31-11.64,2.75-24.2,1.49-36.05,1.45-20.97-.06-41.94-.04-62.91-.04h-25.92c26.95-16.84,53.38-33.51,80.36-50.6Z" fill="#1d1d1b" stroke-width="0"/>
    <path d="m173.86,7.7C122.52-11.13,63.24,5.46,28.84,47.81-5.1,89.6-9.61,149.89,18.12,196.14c28.01,46.72,83.48,71.09,136.86,60.61,60.59-11.9,103.19-66.24,104.18-127.17-.88-54.15-34.05-103.08-85.3-121.88Zm-4.76,233.8c-46.74,16.38-99.69,1.7-131.28-36.44C6.16,166.86,2.14,111.06,27.62,68.57,52.98,26.28,103.57,3.49,152.06,13.01c55.82,10.96,95.19,60.22,96.1,116.57-.81,49.75-31.58,95.28-79.07,111.92Z" fill="#1d1d1b" stroke-width="0"/>
  </g>
</svg>